<svg width="47" height="48" viewBox="0 0 47 48" fill="none" xmlns="http://www.w3.org/2000/svg">
<g style="mix-blend-mode:exclusion">
<path fill-rule="evenodd" clip-rule="evenodd" d="M23.5194 0C10.5138 0 0 10.9328 0 24.4581C0 35.2696 6.73655 44.4213 16.0819 47.6604C17.2504 47.9039 17.6783 47.1341 17.6783 46.4866C17.6783 45.9196 17.6398 43.976 17.6398 41.951C11.0973 43.409 9.73486 39.0354 9.73486 39.0354C8.68343 36.2008 7.12554 35.4723 7.12554 35.4723C4.98417 33.974 7.28152 33.974 7.28152 33.974C9.65687 34.136 10.9033 36.4846 10.9033 36.4846C13.0056 40.2097 16.3934 39.1572 17.7563 38.5091C17.9508 36.9299 18.5743 35.8366 19.2362 35.2293C14.0181 34.6623 8.52793 32.5568 8.52793 23.162C8.52793 20.4895 9.46189 18.3029 10.9418 16.6024C10.7083 15.9951 9.89036 13.4841 11.1758 10.1232C11.1758 10.1232 13.1616 9.47522 17.6393 12.6338C19.5564 12.0984 21.5335 11.8261 23.5194 11.8238C25.5053 11.8238 27.5297 12.1075 29.3991 12.6338C33.8773 9.47522 35.8631 10.1232 35.8631 10.1232C37.1485 13.4841 36.3301 15.9951 36.0966 16.6024C37.6155 18.3029 38.511 20.4895 38.511 23.162C38.511 32.5568 33.0208 34.6216 27.7637 35.2293C28.6206 35.9986 29.3601 37.4561 29.3601 39.7644C29.3601 43.0442 29.3216 45.6766 29.3216 46.4861C29.3216 47.1341 29.75 47.9039 30.918 47.6609C40.2633 44.4208 46.9999 35.2696 46.9999 24.4581C47.0384 10.9328 36.4861 0 23.5194 0Z" fill="black"/>
</g>
</svg>
