<svg width="47" height="45" viewBox="0 0 47 45" fill="none" xmlns="http://www.w3.org/2000/svg">
<g style="mix-blend-mode:exclusion">
<path fill-rule="evenodd" clip-rule="evenodd" d="M21.9525 0.225139C22.5002 -0.0750463 23.1295 -0.0750463 23.6773 0.225139L44.418 11.5935C45.1562 11.9981 45.6297 12.8819 45.6297 13.8552C45.6297 14.8284 45.1562 15.7123 44.418 16.1169L39.4075 18.8634V33.4402C39.4075 33.9403 39.3027 34.4879 39.0385 34.9967C38.3526 36.3182 33.5432 44.7629 22.8149 44.7629C12.0866 44.7629 7.27703 36.3182 6.59111 34.9967C6.32697 34.4879 6.22223 33.9403 6.22223 33.4402V18.8634L1.21176 16.1169C0.473512 15.7123 0 14.8284 0 13.8552C0 12.8819 0.473512 11.9981 1.21176 11.5935L21.9525 0.225139ZM10.3704 21.1368V32.8247C11.3864 34.5145 15.1688 39.7893 22.8149 39.7893C30.4609 39.7893 34.2432 34.5145 35.2593 32.8247V21.1368L23.6773 27.4852C23.1295 27.7854 22.5002 27.7854 21.9525 27.4852L10.3704 21.1368ZM7.06273 13.8552L9.15863 15.004L22.8149 22.4891L36.471 15.004L38.5671 13.8552L22.8149 5.2212L7.06273 13.8552ZM46.6667 21.1381C46.6667 23.1981 45.2738 24.8683 43.5556 24.8683C41.8375 24.8683 40.4445 23.1981 40.4445 21.1381C40.4445 19.078 41.8375 17.4078 43.5556 17.4078C45.2738 17.4078 46.6667 19.078 46.6667 21.1381ZM45.6297 28.5985C45.6297 27.2251 44.7011 26.1117 43.5556 26.1117C42.4101 26.1117 41.4816 27.2251 41.4816 28.5985V42.2761C41.4816 43.6496 42.4101 44.7629 43.5556 44.7629C44.7011 44.7629 45.6297 43.6496 45.6297 42.2761V28.5985Z" fill="black"/>
</g>
</svg>
