<svg width="42" height="43" viewBox="0 0 42 43" fill="none" xmlns="http://www.w3.org/2000/svg">
<g style="mix-blend-mode:exclusion">
<path d="M21 28.7068C23.8996 28.7068 26.25 26.3564 26.25 23.4568C26.25 20.5572 23.8996 18.2068 21 18.2068C18.1004 18.2068 15.75 20.5572 15.75 23.4568C15.75 26.3564 18.1004 28.7068 21 28.7068Z" stroke="white" stroke-width="3.5" stroke-linecap="round" stroke-linejoin="round"/>
<path d="M5.25 30.1068V16.8068C5.25 14.8466 5.25 13.8665 5.63148 13.1178C5.96703 12.4592 6.50246 11.9238 7.16104 11.5883C7.90972 11.2068 8.88982 11.2068 10.85 11.2068H12.6956C12.9108 11.2068 13.0183 11.2068 13.1176 11.1954C13.6354 11.1361 14.0998 10.8491 14.3845 10.4124C14.439 10.3288 14.4871 10.2325 14.5833 10.0401C14.7758 9.65527 14.872 9.46284 14.9811 9.29547C15.5503 8.42222 16.4792 7.84815 17.5149 7.72952C17.7133 7.70679 17.9284 7.70679 18.3587 7.70679H23.6413C24.0716 7.70679 24.2867 7.70679 24.4851 7.72952C25.5208 7.84815 26.4497 8.42222 27.0189 9.29547C27.128 9.46282 27.2242 9.65532 27.4167 10.0401C27.5128 10.2325 27.5609 10.3288 27.6155 10.4124C27.9003 10.8491 28.3645 11.1361 28.8823 11.1954C28.9817 11.2068 29.0892 11.2068 29.3044 11.2068H31.15C33.1102 11.2068 34.0904 11.2068 34.839 11.5883C35.4975 11.9238 36.033 12.4592 36.3685 13.1178C36.75 13.8665 36.75 14.8466 36.75 16.8068V30.1068C36.75 32.067 36.75 33.0471 36.3685 33.7958C36.033 34.4543 35.4975 34.9898 34.839 35.3253C34.0904 35.7068 33.1102 35.7068 31.15 35.7068H10.85C8.88982 35.7068 7.90972 35.7068 7.16104 35.3253C6.50246 34.9898 5.96703 34.4543 5.63148 33.7958C5.25 33.0471 5.25 32.067 5.25 30.1068Z" stroke="white" stroke-width="3.5" stroke-linecap="round" stroke-linejoin="round"/>
</g>
</svg>
