<svg width="45" height="46" viewBox="0 0 45 46" fill="none" xmlns="http://www.w3.org/2000/svg">
<g style="mix-blend-mode:exclusion" clip-path="url(#clip0_222_84)">
<path d="M41.0516 0.706787H3.27305C1.46335 0.706787 0 2.15698 0 3.94995V42.4548C0 44.2478 1.46335 45.7068 3.27305 45.7068H41.0516C42.8613 45.7068 44.3333 44.2478 44.3333 42.4636V3.94995C44.3333 2.15698 42.8613 0.706787 41.0516 0.706787ZM13.1528 39.0535H6.57207V17.573H13.1528V39.0535ZM9.86244 14.6462C7.74968 14.6462 6.04388 12.9148 6.04388 10.7791C6.04388 8.64331 7.74968 6.91186 9.86244 6.91186C11.9665 6.91186 13.6723 8.64331 13.6723 10.7791C13.6723 12.906 11.9665 14.6462 9.86244 14.6462ZM37.7786 39.0535H31.2065V28.6121C31.2065 26.1248 31.1632 22.9167 27.7863 22.9167C24.366 22.9167 23.8465 25.6326 23.8465 28.4363V39.0535H17.2831V17.573H23.5867V20.5085H23.6733C24.5479 18.821 26.6953 17.0369 29.8904 17.0369C36.549 17.0369 37.7786 21.4841 37.7786 27.2673V39.0535Z" fill="white"/>
</g>
<defs>
<clipPath id="clip0_222_84">
<rect width="44.3333" height="45" fill="white" transform="translate(0 0.706787)"/>
</clipPath>
</defs>
</svg>
