<svg width="30" height="31" viewBox="0 0 30 31" fill="none" xmlns="http://www.w3.org/2000/svg">
<g style="mix-blend-mode:exclusion">
<path d="M26.2996 25.9927C20.2947 32.0024 10.5173 32.0024 4.50738 25.9927C-1.50246 19.9827 -1.50246 10.2055 4.50738 4.19818C6.09773 2.6105 8.03652 1.39894 10.2663 0.608887C10.9687 0.363035 11.7464 0.541223 12.2679 1.06543C12.7948 1.59217 12.9729 2.3697 12.7246 3.06704C11.2146 7.32611 12.243 11.9363 15.4035 15.0968C18.559 18.2546 23.1692 19.2806 27.4333 17.7757C28.1306 17.5274 28.9107 17.7056 29.4349 18.2323C29.9618 18.7539 30.1373 19.5341 29.889 20.2339C29.1038 22.4636 27.8898 24.4023 26.2996 25.9927ZM7.23141 6.92218C2.72391 11.4296 2.72391 18.7638 7.23141 23.2687C12.0474 28.0871 20.2496 27.6531 24.4485 22.2853C20.119 22.5562 15.855 20.9935 12.6795 17.8204C9.50394 14.6475 7.94381 10.3834 8.21459 6.05411C7.86856 6.32525 7.53987 6.61372 7.23141 6.92218Z" fill="white"/>
</g>
</svg>
