<svg width="34" height="35" viewBox="0 0 34 35" fill="none" xmlns="http://www.w3.org/2000/svg">
<g style="mix-blend-mode:exclusion">
<path d="M17 8.34615C11.9531 8.34615 7.84615 12.4531 7.84615 17.5C7.84615 22.5468 11.9531 26.6538 17 26.6538C22.0469 26.6538 26.1538 22.5468 26.1538 17.5C26.1538 12.4531 22.0469 8.34615 17 8.34615ZM17 5.73077C17.7219 5.73077 18.3077 5.14672 18.3077 4.42308V1.80769C18.3077 1.08576 17.7219 0.5 17 0.5C16.2764 0.5 15.6923 1.08576 15.6923 1.80769V4.42308C15.6923 5.14672 16.2764 5.73077 17 5.73077ZM17 29.2692C16.2764 29.2692 15.6923 29.855 15.6923 30.5769V33.1923C15.6923 33.916 16.2764 34.5 17 34.5C17.7219 34.5 18.3077 33.916 18.3077 33.1923V30.5769C18.3077 29.855 17.7219 29.2692 17 29.2692ZM27.1687 9.17711L29.0179 7.32795C29.5287 6.81714 29.5287 5.98961 29.0179 5.47879C28.507 4.96798 27.6795 4.96798 27.1687 5.47879L25.3195 7.32795C24.8086 7.83877 24.8086 8.66629 25.3195 9.17711C25.8304 9.68785 26.6578 9.68785 27.1687 9.17711ZM6.82787 25.8246L4.97887 27.6738C4.46789 28.1846 4.46789 29.0123 4.97887 29.5229C5.48961 30.0337 6.31705 30.0337 6.82787 29.5229L8.67703 27.6738C9.18793 27.1596 9.18793 26.3354 8.67703 25.8246C8.16629 25.3138 7.33877 25.3104 6.82787 25.8246ZM5.23077 17.5C5.23077 16.7781 4.645 16.1923 3.92308 16.1923H1.30769C0.584048 16.1923 0 16.7781 0 17.5C0 18.2236 0.584048 18.8077 1.30769 18.8077H3.92308C4.645 18.8077 5.23077 18.2236 5.23077 17.5ZM32.6923 16.1923H30.0769C29.3533 16.1923 28.7692 16.7781 28.7692 17.5C28.7692 18.2236 29.3533 18.8077 30.0769 18.8077H32.6923C33.4142 18.8077 34 18.2236 34 17.5C34 16.7781 33.4142 16.1923 32.6923 16.1923ZM6.82624 9.17711C7.33697 9.68793 8.16458 9.68793 8.67539 9.17711C9.18613 8.66629 9.18613 7.83877 8.67539 7.32795L6.82624 5.47879C6.31542 4.96798 5.48781 4.96798 4.97708 5.47879C4.46626 5.98961 4.46626 6.81714 4.97708 7.32795L6.82624 9.17711ZM27.1721 25.8212C26.6578 25.3104 25.8337 25.3104 25.323 25.8212C24.8122 26.3318 24.8086 27.1595 25.323 27.6703L27.1721 29.5195C27.6829 30.0301 28.5104 30.0301 29.0213 29.5195C29.532 29.0087 29.532 28.181 29.0213 27.6703L27.1721 25.8212Z" fill="white"/>
</g>
</svg>
