<?xml version="1.0" standalone="no"?>
<!DOCTYPE svg PUBLIC "-//W3C//DTD SVG 20010904//EN"
 "http://www.w3.org/TR/2001/REC-SVG-20010904/DTD/svg10.dtd">
<svg version="1.0" xmlns="http://www.w3.org/2000/svg"
 width="99.000000pt" height="135.000000pt" viewBox="0 0 99.000000 135.000000"
 preserveAspectRatio="xMidYMid meet">

<g transform="translate(0.000000,135.000000) scale(0.100000,-0.100000)"
fill="#0C2344" stroke="none">
<path d="M2 913 c4 -419 5 -441 26 -503 62 -185 203 -323 400 -390 l69 -24 77
28 c88 32 203 105 258 162 50 53 104 146 130 224 21 62 22 85 26 503 l3 437
-496 0 -496 0 3 -437z m948 10 c0 -298 -4 -404 -15 -456 -38 -182 -178 -333
-373 -404 l-65 -24 -62 21 c-191 64 -342 225 -380 407 -11 52 -15 158 -15 456
l0 387 455 0 455 0 0 -387z"/>
<path d="M745 1255 c-69 -24 -106 -94 -89 -168 15 -69 64 -107 141 -107 76 0
102 12 95 45 -3 19 -9 24 -21 20 -37 -15 -83 -17 -105 -5 -48 25 -60 99 -25
145 19 24 27 26 68 23 25 -2 53 -6 61 -9 10 -3 16 5 18 23 3 23 -2 28 -35 37
-48 14 -59 13 -108 -4z"/>
<path d="M92 1149 c3 -111 3 -111 36 -140 28 -25 40 -29 92 -29 52 0 64 4 92
29 l33 29 3 111 4 111 -36 0 -36 0 0 -98 c0 -109 -11 -132 -62 -132 -46 0 -58
27 -58 133 l0 97 -36 0 -36 0 4 -111z"/>
<path d="M410 1120 l0 -140 60 0 c33 0 76 6 95 14 56 24 72 79 34 117 -16 16
-18 23 -9 34 6 7 10 31 8 52 -4 49 -31 63 -120 63 l-68 0 0 -140z m104 90 c47
-17 29 -60 -25 -60 -15 0 -19 7 -19 35 0 38 5 40 44 25z m29 -117 c11 -7 8
-38 -5 -51 -7 -7 -25 -12 -40 -12 -26 0 -28 3 -28 41 0 41 0 41 33 34 17 -4
35 -9 40 -12z"/>
<path d="M148 932 c-52 -14 -58 -19 -58 -42 0 -38 6 -40 58 -24 59 18 105 18
163 0 36 -11 56 -12 85 -4 22 6 66 11 99 11 33 0 77 -5 99 -11 29 -8 49 -7 85
4 58 18 104 18 163 0 52 -16 58 -14 58 24 0 24 -6 28 -68 44 -55 14 -75 15
-112 6 -85 -22 -100 -22 -164 -5 -59 16 -67 16 -119 1 -62 -18 -100 -20 -125
-7 -34 18 -107 20 -164 3z"/>
<path d="M470 668 c-12 -95 -25 -176 -29 -180 -4 -4 -43 53 -86 126 -44 74
-81 133 -82 132 -1 -1 13 -67 31 -146 19 -80 33 -147 31 -148 -2 -2 -42 33
-89 78 -47 46 -86 80 -86 77 0 -2 20 -53 44 -111 24 -58 42 -106 39 -106 -2 0
-34 23 -70 50 -36 28 -68 48 -71 46 -2 -3 16 -48 42 -100 61 -125 116 -181
239 -241 51 -25 102 -45 112 -45 10 0 61 20 112 45 123 60 178 116 239 241 26
52 44 97 42 100 -3 2 -35 -18 -71 -46 -36 -27 -68 -50 -70 -50 -3 0 15 48 39
106 24 58 44 109 44 111 0 3 -39 -31 -86 -77 -47 -45 -87 -80 -89 -78 -2 1 12
68 31 148 18 79 32 145 31 146 -1 1 -38 -58 -82 -132 -43 -73 -82 -130 -86
-126 -4 4 -17 85 -29 180 -12 94 -24 172 -25 172 -1 0 -13 -78 -25 -172z"/>
<path d="M150 820 c-8 -5 -25 -10 -37 -10 -19 0 -23 -6 -23 -29 0 -39 10 -44
60 -26 54 19 89 19 157 -1 46 -13 62 -14 98 -4 36 10 45 17 50 42 4 16 5 32 2
34 -2 3 -25 -1 -51 -8 -36 -10 -56 -10 -91 0 -54 14 -144 16 -165 2z"/>
<path d="M530 819 c1 -41 13 -57 55 -69 36 -10 52 -9 98 4 68 20 103 20 157 1
50 -18 60 -13 60 24 0 24 -5 30 -32 36 -33 8 -126 9 -228 3 -30 -1 -67 1 -82
6 -21 6 -28 5 -28 -5z"/>
<path d="M135 706 c-34 -11 -40 -17 -43 -44 -4 -37 5 -39 68 -17 23 8 56 15
72 15 23 0 29 4 24 16 -3 9 -6 22 -6 30 0 17 -57 17 -115 0z"/>
<path d="M740 706 c0 -8 -3 -21 -6 -30 -5 -12 1 -16 24 -16 16 0 49 -7 72 -15
63 -22 72 -20 68 16 -3 28 -8 33 -48 45 -60 18 -110 18 -110 0z"/>
<path d="M378 701 l-37 -6 20 -32 c18 -29 22 -31 50 -21 23 8 29 16 29 39 0
17 -5 28 -12 28 -7 -1 -30 -5 -50 -8z"/>
<path d="M550 681 c0 -23 6 -31 29 -39 28 -10 32 -8 50 21 11 17 19 32 18 33
-1 1 -23 4 -49 7 -48 7 -48 6 -48 -22z"/>
</g>
</svg>
