<svg width="47" height="47" viewBox="0 0 47 47" fill="none" xmlns="http://www.w3.org/2000/svg">
<g style="mix-blend-mode:exclusion">
<path d="M31.3333 13.7083V12.1417C31.3333 9.94814 31.3333 8.85135 30.9064 8.01354C30.531 7.27656 29.9318 6.67739 29.1948 6.3019C28.3571 5.875 27.2602 5.875 25.0667 5.875H21.9333C19.7398 5.875 18.643 5.875 17.8052 6.3019C17.0682 6.67739 16.4691 7.27656 16.0936 8.01354C15.6667 8.85135 15.6667 9.94814 15.6667 12.1417V13.7083M5.92829 19.6348C6.63436 20.3116 14.2679 27.4167 23.5 27.4167C32.7322 27.4167 40.3656 20.3116 41.0717 19.6348M5.92829 19.6348C5.875 20.5488 5.875 21.6719 5.875 23.1083V31.725C5.875 35.0154 5.875 36.6604 6.51534 37.9172C7.07859 39.0227 7.97735 39.9214 9.08281 40.4846C10.3395 41.125 11.9847 41.125 15.275 41.125H31.725C35.0154 41.125 36.6604 41.125 37.9172 40.4846C39.0227 39.9214 39.9214 39.0227 40.4846 37.9172C41.125 36.6604 41.125 35.0154 41.125 31.725V23.1083C41.125 21.6719 41.125 20.5488 41.0717 19.6348M5.92829 19.6348C5.99706 18.4555 6.15457 17.6242 6.51534 16.9161C7.07859 15.8107 7.97735 14.9119 9.08281 14.3487C10.3395 13.7083 11.9847 13.7083 15.275 13.7083H31.725C35.0154 13.7083 36.6604 13.7083 37.9172 14.3487C39.0227 14.9119 39.9214 15.8107 40.4846 16.9161C40.8454 17.6242 41.003 18.4555 41.0717 19.6348" stroke="white" stroke-width="3.91667" stroke-linecap="round" stroke-linejoin="round"/>
</g>
</svg>
